<svg xmlns="http://www.w3.org/2000/svg" viewBox="0 0 100 100" width="100" height="100">
  <defs>
    <linearGradient id="shieldGrad" x1="0%" y1="0%" x2="100%" y2="100%">
      <stop offset="0%" style="stop-color:#00f5d4;stop-opacity:1" />
      <stop offset="100%" style="stop-color:#00bbf9;stop-opacity:1" />
    </linearGradient>
  </defs>
  <path fill="url(#shieldGrad)" d="M50 5 L90 15 L90 45 C90 75 50 95 50 95 C50 95 10 75 10 45 L10 15 Z"/>
  <path fill="#1a1a2e" d="M50 20 L80 27 L80 45 C80 65 50 80 50 80 C50 80 20 65 20 45 L20 27 Z"/>
  <path fill="#00f5d4" d="M45 35 L40 45 L50 40 L60 45 L55 35 L50 30 Z"/>
  <path fill="#00f5d4" d="M38 55 L50 60 L62 55 L62 60 L50 70 L38 60 Z"/>
  <circle fill="#00f5d4" cx="50" cy="45" r="5"/>
</svg>
